<svg width="41" height="8" viewBox="0 0 41 8" fill="none" xmlns="http://www.w3.org/2000/svg">
<path d="M0 3.86719L39.16 3.86719" stroke="white" stroke-width="0.77" stroke-miterlimit="10"/>
<path d="M33.8998 7.55878C33.7898 7.37878 33.8398 7.13875 34.0198 7.02875L38.9798 3.86877L34.0198 0.70874C33.8398 0.59874 33.7898 0.358772 33.8998 0.178772C34.0098 -0.00122785 34.2498 -0.0512233 34.4298 0.0587769L39.8998 3.53876C40.0098 3.60876 40.0798 3.72876 40.0798 3.85876C40.0798 3.98876 40.0098 4.10877 39.8998 4.17877L34.4298 7.65875C34.3698 7.69875 34.2898 7.71875 34.2198 7.71875C34.0898 7.71875 33.9698 7.65876 33.8998 7.53876L33.8998 7.55878Z" fill="white"/>
</svg>
